<svg xmlns="http://www.w3.org/2000/svg" xmlns:xlink="http://www.w3.org/1999/xlink" width="2000" zoomAndPan="magnify" viewBox="0 0 1500 1499.999933" height="2000" preserveAspectRatio="xMidYMid meet" version="1.0"><path fill="#4f39f6" d="M 1499.976562 749.988281 C 1499.976562 762.261719 1499.675781 774.53125 1499.074219 786.789062 C 1498.472656 799.046875 1497.570312 811.285156 1496.367188 823.5 C 1495.164062 835.714844 1493.660156 847.894531 1491.859375 860.035156 C 1490.058594 872.175781 1487.960938 884.265625 1485.566406 896.304688 C 1483.171875 908.34375 1480.484375 920.316406 1477.5 932.222656 C 1474.519531 944.128906 1471.246094 955.953125 1467.683594 967.699219 C 1464.121094 979.445312 1460.269531 991.09375 1456.136719 1002.652344 C 1452 1014.207031 1447.585938 1025.65625 1442.886719 1036.996094 C 1438.191406 1048.335938 1433.21875 1059.554688 1427.96875 1070.648438 C 1422.722656 1081.746094 1417.207031 1092.707031 1411.417969 1103.53125 C 1405.632812 1114.355469 1399.585938 1125.03125 1393.273438 1135.558594 C 1386.964844 1146.085938 1380.402344 1156.453125 1373.582031 1166.660156 C 1366.761719 1176.867188 1359.695312 1186.898438 1352.386719 1196.757812 C 1345.074219 1206.613281 1337.523438 1216.289062 1329.738281 1225.777344 C 1321.949219 1235.265625 1313.9375 1244.554688 1305.695312 1253.648438 C 1297.449219 1262.746094 1288.988281 1271.632812 1280.3125 1280.3125 C 1271.632812 1288.988281 1262.746094 1297.449219 1253.648438 1305.695312 C 1244.554688 1313.9375 1235.265625 1321.949219 1225.777344 1329.738281 C 1216.289062 1337.523438 1206.613281 1345.074219 1196.757812 1352.386719 C 1186.898438 1359.695312 1176.867188 1366.761719 1166.660156 1373.582031 C 1156.453125 1380.402344 1146.085938 1386.964844 1135.558594 1393.273438 C 1125.03125 1399.585938 1114.355469 1405.632812 1103.53125 1411.417969 C 1092.707031 1417.207031 1081.746094 1422.722656 1070.648438 1427.96875 C 1059.554688 1433.21875 1048.335938 1438.191406 1036.996094 1442.886719 C 1025.65625 1447.585938 1014.207031 1452 1002.652344 1456.136719 C 991.09375 1460.269531 979.445312 1464.121094 967.699219 1467.683594 C 955.953125 1471.246094 944.128906 1474.519531 932.222656 1477.5 C 920.316406 1480.484375 908.34375 1483.171875 896.304688 1485.566406 C 884.265625 1487.960938 872.175781 1490.058594 860.035156 1491.859375 C 847.894531 1493.660156 835.714844 1495.164062 823.5 1496.367188 C 811.285156 1497.570312 799.046875 1498.472656 786.789062 1499.074219 C 774.53125 1499.675781 762.261719 1499.976562 749.988281 1499.976562 C 737.714844 1499.976562 725.449219 1499.675781 713.1875 1499.074219 C 700.929688 1498.472656 688.691406 1497.570312 676.476562 1496.367188 C 664.261719 1495.164062 652.082031 1493.660156 639.941406 1491.859375 C 627.800781 1490.058594 615.710938 1487.960938 603.671875 1485.566406 C 591.636719 1483.171875 579.664062 1480.484375 567.757812 1477.5 C 555.851562 1474.519531 544.023438 1471.246094 532.277344 1467.683594 C 520.53125 1464.121094 508.882812 1460.269531 497.324219 1456.136719 C 485.769531 1452 474.320312 1447.585938 462.980469 1442.886719 C 451.640625 1438.191406 440.421875 1433.21875 429.328125 1427.96875 C 418.230469 1422.722656 407.269531 1417.207031 396.445312 1411.417969 C 385.621094 1405.632812 374.945312 1399.585938 364.417969 1393.273438 C 353.890625 1386.964844 343.523438 1380.402344 333.316406 1373.582031 C 323.113281 1366.761719 313.078125 1359.695312 303.222656 1352.386719 C 293.363281 1345.074219 283.6875 1337.523438 274.199219 1329.738281 C 264.714844 1321.949219 255.421875 1313.9375 246.328125 1305.695312 C 237.234375 1297.449219 228.347656 1288.988281 219.667969 1280.3125 C 210.988281 1271.632812 202.527344 1262.746094 194.285156 1253.648438 C 186.039062 1244.554688 178.027344 1235.265625 170.238281 1225.777344 C 162.453125 1216.289062 154.902344 1206.613281 147.59375 1196.757812 C 140.28125 1186.898438 133.214844 1176.867188 126.394531 1166.660156 C 119.578125 1156.453125 113.011719 1146.085938 106.703125 1135.558594 C 100.390625 1125.03125 94.34375 1114.355469 88.558594 1103.53125 C 82.773438 1092.707031 77.253906 1081.746094 72.007812 1070.648438 C 66.757812 1059.554688 61.785156 1048.335938 57.089844 1036.996094 C 52.390625 1025.65625 47.976562 1014.207031 43.839844 1002.652344 C 39.707031 991.09375 35.855469 979.445312 32.292969 967.699219 C 28.730469 955.953125 25.457031 944.128906 22.476562 932.222656 C 19.492188 920.316406 16.804688 908.34375 14.410156 896.304688 C 12.015625 884.265625 9.917969 872.175781 8.117188 860.035156 C 6.316406 847.894531 4.816406 835.714844 3.613281 823.5 C 2.410156 811.285156 1.503906 799.046875 0.902344 786.789062 C 0.300781 774.53125 0 762.261719 0 749.988281 C 0 737.714844 0.300781 725.449219 0.902344 713.1875 C 1.503906 700.929688 2.410156 688.691406 3.613281 676.476562 C 4.816406 664.261719 6.316406 652.082031 8.117188 639.941406 C 9.917969 627.800781 12.015625 615.710938 14.410156 603.671875 C 16.804688 591.632812 19.492188 579.664062 22.476562 567.757812 C 25.457031 555.851562 28.730469 544.023438 32.292969 532.277344 C 35.855469 520.53125 39.707031 508.882812 43.839844 497.324219 C 47.976562 485.769531 52.390625 474.320312 57.089844 462.980469 C 61.785156 451.640625 66.757812 440.421875 72.007812 429.328125 C 77.253906 418.230469 82.773438 407.269531 88.558594 396.445312 C 94.34375 385.621094 100.390625 374.945312 106.703125 364.417969 C 113.011719 353.890625 119.578125 343.523438 126.394531 333.316406 C 133.214844 323.113281 140.28125 313.078125 147.59375 303.222656 C 154.902344 293.363281 162.453125 283.6875 170.238281 274.199219 C 178.027344 264.710938 186.039062 255.421875 194.285156 246.328125 C 202.527344 237.234375 210.988281 228.34375 219.667969 219.667969 C 228.347656 210.988281 237.234375 202.527344 246.328125 194.285156 C 255.421875 186.039062 264.714844 178.027344 274.199219 170.238281 C 283.6875 162.453125 293.363281 154.902344 303.222656 147.59375 C 313.078125 140.28125 323.113281 133.214844 333.316406 126.394531 C 343.523438 119.578125 353.890625 113.011719 364.417969 106.703125 C 374.945312 100.390625 385.621094 94.34375 396.445312 88.558594 C 407.269531 82.773438 418.230469 77.253906 429.328125 72.007812 C 440.421875 66.757812 451.640625 61.785156 462.980469 57.089844 C 474.320312 52.390625 485.769531 47.976562 497.324219 43.839844 C 508.882812 39.707031 520.53125 35.855469 532.277344 32.292969 C 544.023438 28.730469 555.851562 25.457031 567.757812 22.476562 C 579.664062 19.492188 591.636719 16.804688 603.671875 14.410156 C 615.710938 12.015625 627.800781 9.917969 639.941406 8.117188 C 652.082031 6.316406 664.261719 4.816406 676.476562 3.613281 C 688.691406 2.410156 700.929688 1.503906 713.1875 0.902344 C 725.449219 0.300781 737.714844 0 749.988281 0 C 762.261719 0 774.53125 0.300781 786.789062 0.902344 C 799.046875 1.503906 811.285156 2.410156 823.5 3.613281 C 835.714844 4.816406 847.894531 6.316406 860.035156 8.117188 C 872.175781 9.917969 884.265625 12.015625 896.304688 14.410156 C 908.34375 16.804688 920.316406 19.492188 932.222656 22.476562 C 944.128906 25.457031 955.953125 28.730469 967.699219 32.292969 C 979.445312 35.855469 991.09375 39.707031 1002.652344 43.839844 C 1014.207031 47.976562 1025.65625 52.390625 1036.996094 57.089844 C 1048.335938 61.785156 1059.554688 66.757812 1070.648438 72.007812 C 1081.746094 77.253906 1092.707031 82.773438 1103.53125 88.558594 C 1114.355469 94.34375 1125.03125 100.390625 1135.558594 106.703125 C 1146.085938 113.011719 1156.453125 119.578125 1166.660156 126.394531 C 1176.867188 133.214844 1186.898438 140.28125 1196.757812 147.59375 C 1206.613281 154.902344 1216.289062 162.453125 1225.777344 170.238281 C 1235.265625 178.027344 1244.554688 186.039062 1253.648438 194.285156 C 1262.746094 202.527344 1271.632812 210.988281 1280.3125 219.667969 C 1288.988281 228.34375 1297.449219 237.234375 1305.695312 246.328125 C 1313.9375 255.421875 1321.949219 264.710938 1329.738281 274.199219 C 1337.523438 283.6875 1345.074219 293.363281 1352.386719 303.222656 C 1359.695312 313.078125 1366.761719 323.113281 1373.582031 333.316406 C 1380.402344 343.523438 1386.964844 353.890625 1393.273438 364.417969 C 1399.585938 374.945312 1405.632812 385.621094 1411.417969 396.445312 C 1417.207031 407.269531 1422.722656 418.230469 1427.96875 429.328125 C 1433.21875 440.421875 1438.191406 451.640625 1442.886719 462.980469 C 1447.585938 474.320312 1452 485.769531 1456.136719 497.324219 C 1460.269531 508.882812 1464.121094 520.53125 1467.683594 532.277344 C 1471.246094 544.023438 1474.519531 555.851562 1477.5 567.757812 C 1480.484375 579.664062 1483.171875 591.632812 1485.566406 603.671875 C 1487.960938 615.710938 1490.058594 627.800781 1491.859375 639.941406 C 1493.660156 652.082031 1495.164062 664.261719 1496.367188 676.476562 C 1497.570312 688.691406 1498.472656 700.929688 1499.074219 713.1875 C 1499.675781 725.449219 1499.976562 737.714844 1499.976562 749.988281 Z M 1499.976562 749.988281 " fill-opacity="1" fill-rule="nonzero"/><path fill="#ffffff" d="M 749.988281 1229.761719 C 746.039062 1229.761719 742.371094 1227.695312 740.308594 1224.328125 L 696.535156 1152.441406 C 653.65625 1141.507812 342.675781 1051.378906 358.90625 747.636719 C 359.09375 744.09375 360.929688 740.855469 363.855469 738.863281 C 366.789062 736.878906 370.480469 736.375 373.832031 737.5 L 528.640625 789.609375 C 532.984375 791.074219 536.027344 795.011719 536.332031 799.589844 C 536.636719 804.164062 534.160156 808.476562 530.046875 810.511719 L 450.417969 849.886719 C 506.140625 950.074219 582.804688 1014.871094 678.570312 1042.726562 L 694.398438 622.742188 L 805.5625 622.742188 L 821.398438 1042.726562 C 917.167969 1014.871094 993.828125 950.085938 1049.550781 849.886719 L 969.914062 810.511719 C 965.8125 808.476562 963.324219 804.164062 963.628906 799.589844 C 963.9375 795.003906 966.96875 791.074219 971.328125 789.609375 L 1126.144531 737.5 C 1129.496094 736.375 1133.199219 736.871094 1136.125 738.867188 C 1139.046875 740.859375 1140.882812 744.097656 1141.074219 747.644531 C 1157.308594 1051.390625 846.328125 1141.5 803.449219 1152.453125 L 759.664062 1224.339844 C 757.597656 1227.714844 753.925781 1229.765625 749.976562 1229.765625 Z M 699.523438 486.9375 L 701.441406 436.105469 C 715.839844 444.089844 732.386719 448.640625 749.988281 448.640625 C 767.582031 448.640625 784.125 444.09375 798.519531 436.117188 L 800.4375 486.945312 L 699.523438 486.945312 Z M 699.523438 486.9375 " fill-opacity="1" fill-rule="evenodd"/><path fill="#ffffff" d="M 749.988281 426.140625 C 706.996094 426.140625 672.023438 391.164062 672.023438 348.171875 C 672.023438 305.179688 706.996094 270.210938 749.988281 270.210938 C 792.980469 270.210938 827.957031 305.1875 827.957031 348.175781 C 827.957031 391.167969 792.980469 426.140625 749.988281 426.140625 Z M 749.988281 426.140625 " fill-opacity="1" fill-rule="evenodd"/><path fill="#ffffff" d="M 906.554688 600.246094 L 593.417969 600.246094 C 568.386719 600.246094 548.015625 579.878906 548.015625 554.84375 C 548.015625 529.804688 568.382812 509.4375 593.417969 509.4375 L 906.554688 509.4375 C 931.589844 509.4375 951.957031 529.804688 951.957031 554.84375 C 951.957031 579.878906 931.589844 600.246094 906.554688 600.246094 Z M 906.554688 600.246094 " fill-opacity="1" fill-rule="evenodd"/></svg>